<?xml version="1.0" encoding="utf-8"?>
<!-- Generator: Adobe Illustrator 18.0.0, SVG Export Plug-In . SVG Version: 6.00 Build 0)  -->
<!DOCTYPE svg PUBLIC "-//W3C//DTD SVG 1.1//EN" "http://www.w3.org/Graphics/SVG/1.1/DTD/svg11.dtd">
<svg version="1.1" id="Layer_1" xmlns="http://www.w3.org/2000/svg" xmlns:xlink="http://www.w3.org/1999/xlink" x="0px" y="0px"
	 viewBox="238 340 136 112" enable-background="new 238 340 136 112" xml:space="preserve">
<g>
	<g>
		<path d="M301.7,352.3h-3v-13.8h8.7v2.3h-5.7v4h5.4v2.2h-5.4V352.3z"/>
		<path d="M315,338.3c4,0,6.5,2.5,6.5,7.1c0,4.5-2.6,7.1-6.5,7.1c-4.1,0-6.5-2.6-6.5-7.1C308.5,340.9,311.1,338.3,315,338.3z
			 M318.3,345.5c0-3.3-1.4-5-3.3-5c-2.1,0-3.3,1.7-3.3,5c0,3.3,1.1,5,3.3,5C317.1,350.5,318.3,348.8,318.3,345.5z"/>
		<path d="M328.3,347.1h-2.1v5.2h-3v-13.8h5.4c0.9,0,1.9,0.1,2.8,0.5c1.3,0.6,2.3,1.6,2.3,3.6c0,2.2-1.4,3.3-2.7,3.8v0l3.1,5.9h-3.2
			L328.3,347.1z M328.3,345c1.3,0,2.4-0.6,2.4-2.2c0-1.7-1.3-2.2-2.4-2.2h-2.1v4.4H328.3z"/>
		<path d="M344.1,349.3h-5.1l-1,3.1h-2.8l4.8-13.8h3.3l4.9,13.8h-3.1L344.1,349.3z M341.1,343.1l-1.3,4h3.6l-1.3-4
			c-0.4-1.2-0.5-2-0.5-2h0C341.6,341.2,341.4,342,341.1,343.1z"/>
		<path d="M351.6,345.5c0,3.6,1.3,5,3.4,5c1.9,0,3-1.2,3.1-3.1l0-0.3h-3.3V345h6v7.4h-2.3v-1.9h-0.1c-0.6,1.2-2,2.2-4,2.2
			c-3.9,0-6-2.7-6-7c0-4.5,2.6-7.3,6.5-7.3c3.3,0,5.3,1.6,5.6,4.4h-3c-0.2-1.3-1.2-2.3-2.6-2.3C352.9,340.5,351.6,342.2,351.6,345.5
			z"/>
		<path d="M363.1,338.5h9.1v2.3h-6.1v3.6h5.8v2.2h-5.8v3.6h6.3v2.2h-9.2V338.5z"/>
		<path d="M301.7,368.3v4.7h-3v-13.8h4.8c3,0,5.3,1.3,5.3,4.5c0,3.4-2.4,4.6-5.5,4.6H301.7z M303.4,366.2c1.5,0,2.4-0.8,2.4-2.4
			c0-1.7-0.9-2.4-2.4-2.4h-1.8v4.8H303.4z"/>
		<path d="M315.5,367.8h-2.1v5.2h-3v-13.8h5.4c0.9,0,1.9,0.1,2.8,0.5c1.3,0.6,2.3,1.6,2.3,3.6c0,2.2-1.4,3.3-2.7,3.8v0l3.1,5.9h-3.2
			L315.5,367.8z M315.4,365.7c1.3,0,2.4-0.6,2.4-2.2c0-1.7-1.3-2.2-2.4-2.2h-2.1v4.4H315.4z"/>
		<path d="M323.2,359.3h9.1v2.3h-6.1v3.6h5.8v2.2h-5.8v3.6h6.3v2.2h-9.3V359.3z"/>
		<path d="M341.5,363c-0.1-0.9-0.7-1.8-2.1-1.8c-1.3,0-2.1,0.7-2.1,1.7c0,0.9,0.5,1.5,1.8,1.7l2.1,0.4c2.5,0.5,3.6,1.8,3.6,3.8
			c0,3-2,4.6-5.5,4.6c-3.4,0-5.4-1.7-5.5-4.2h3.1c0.1,1.2,1,2.1,2.5,2.1c1.6,0,2.4-0.8,2.4-1.9c0-1-0.5-1.5-2-1.7l-2.1-0.4
			c-2.1-0.4-3.6-1.7-3.6-3.9c0-2.4,1.9-4.2,5.2-4.2c3.5,0,5,1.8,5.1,3.9H341.5z"/>
		<path d="M353.8,363c-0.1-0.9-0.7-1.8-2.1-1.8c-1.3,0-2.1,0.7-2.1,1.7c0,0.9,0.5,1.5,1.8,1.7l2.1,0.4c2.5,0.5,3.6,1.8,3.6,3.8
			c0,3-2,4.6-5.5,4.6c-3.4,0-5.4-1.7-5.5-4.2h3.1c0.1,1.2,1,2.1,2.5,2.1c1.6,0,2.4-0.8,2.4-1.9c0-1-0.5-1.5-2-1.7l-2.1-0.4
			c-2.1-0.4-3.6-1.7-3.6-3.9c0-2.4,1.9-4.2,5.2-4.2c3.5,0,5,1.8,5.1,3.9H353.8z"/>
	</g>
	<polygon points="270.9,400.8 236.4,400.8 236.4,450.1 250.2,450.1 250.2,414.6 284.8,414.6 284.8,380 250.2,380 250.2,373.1 
		284.8,373.1 284.8,338.5 236.4,338.5 236.4,352.4 270.9,352.4 270.9,359.3 236.4,359.3 236.4,393.8 270.9,393.8 	"/>
</g>
</svg>
