<?xml version="1.0" encoding="utf-8"?>
<!-- Generator: Adobe Illustrator 18.0.0, SVG Export Plug-In . SVG Version: 6.00 Build 0)  -->
<!DOCTYPE svg PUBLIC "-//W3C//DTD SVG 1.1//EN" "http://www.w3.org/Graphics/SVG/1.1/DTD/svg11.dtd">
<svg version="1.1" id="Layer_1" xmlns="http://www.w3.org/2000/svg" xmlns:xlink="http://www.w3.org/1999/xlink" x="0px" y="0px"
	 viewBox="0 -0.1 138 113" enable-background="new 0 -0.1 138 113" xml:space="preserve">
<g>
	<g>
		<path d="M66.2,15h-3V1.1H72v2.3h-5.7v4h5.4v2.2h-5.4V15z"/>
		<path d="M79.6,0.9c4,0,6.5,2.5,6.5,7.1c0,4.5-2.6,7.1-6.5,7.1c-4.1,0-6.5-2.6-6.5-7.1S75.7,0.9,79.6,0.9z M82.9,8.1
			c0-3.3-1.4-5-3.3-5c-2.1,0-3.3,1.7-3.3,5s1.1,5,3.3,5C81.7,13.2,82.9,11.4,82.9,8.1z"/>
		<path d="M92.8,9.7h-2.1V15h-3V1.1h5.4c0.9,0,1.9,0.1,2.8,0.5c1.3,0.6,2.3,1.6,2.3,3.6c0,2.2-1.4,3.3-2.7,3.8l0,0l3.1,5.9h-3.2
			L92.8,9.7z M92.8,7.6c1.3,0,2.4-0.6,2.4-2.2c0-1.7-1.3-2.2-2.4-2.2h-2.1v4.4L92.8,7.6L92.8,7.6z"/>
		<path d="M108.7,11.9h-5.1l-1,3.1h-2.8l4.8-13.8h3.3l4.9,13.8h-3.1L108.7,11.9z M105.7,5.7l-1.3,4h3.6l-1.3-4c-0.4-1.2-0.5-2-0.5-2
			l0,0C106.2,3.8,106,4.6,105.7,5.7z"/>
		<path d="M116.2,8.1c0,3.6,1.3,5,3.4,5c1.9,0,3-1.2,3.1-3.1V9.7h-3.3V7.6h6v7.4h-2.3v-1.9H123c-0.6,1.2-2,2.2-4,2.2
			c-3.9,0-6-2.7-6-7c0-4.5,2.6-7.3,6.5-7.3c3.3,0,5.3,1.6,5.6,4.4h-3c-0.2-1.3-1.2-2.3-2.6-2.3C117.5,3.1,116.2,4.8,116.2,8.1z"/>
		<path d="M127.6,1.1h9.1v2.3h-6.1V7h5.8v2.2h-5.8v3.6h6.3v2.2h-9.2L127.6,1.1L127.6,1.1z"/>
		<path d="M66.2,30.9v4.7h-3V21.8H68c3,0,5.3,1.3,5.3,4.5c0,3.4-2.4,4.6-5.5,4.6L66.2,30.9L66.2,30.9z M67.9,28.8
			c1.5,0,2.4-0.8,2.4-2.4c0-1.7-0.9-2.4-2.4-2.4h-1.8v4.8H67.9z"/>
		<path d="M80.1,30.4H78v5.2h-3V21.8h5.4c0.9,0,1.9,0.1,2.8,0.5c1.3,0.6,2.3,1.6,2.3,3.6c0,2.2-1.4,3.3-2.7,3.8l0,0l3.1,5.9h-3.2
			L80.1,30.4z M80,28.3c1.3,0,2.4-0.6,2.4-2.2c0-1.7-1.3-2.2-2.4-2.2h-2.1v4.4L80,28.3L80,28.3z"/>
		<path d="M87.7,21.9h9.1v2.3h-6.1v3.6h5.8V30h-5.8v3.6H97v2.2h-9.3V21.9z"/>
		<path d="M106.1,25.6c-0.1-0.9-0.7-1.8-2.1-1.8c-1.3,0-2.1,0.7-2.1,1.7c0,0.9,0.5,1.5,1.8,1.7l2.1,0.4c2.5,0.5,3.6,1.8,3.6,3.8
			c0,3-2,4.6-5.5,4.6c-3.4,0-5.4-1.7-5.5-4.2h3.1c0.1,1.2,1,2.1,2.5,2.1c1.6,0,2.4-0.8,2.4-1.9c0-1-0.5-1.5-2-1.7l-2.1-0.4
			c-2.1-0.4-3.6-1.7-3.6-3.9c0-2.4,1.9-4.2,5.2-4.2c3.5,0,5,1.8,5.1,3.9L106.1,25.6L106.1,25.6z"/>
		<path d="M118.4,25.6c-0.1-0.9-0.7-1.8-2.1-1.8c-1.3,0-2.1,0.7-2.1,1.7c0,0.9,0.5,1.5,1.8,1.7l2.1,0.4c2.5,0.5,3.6,1.8,3.6,3.8
			c0,3-2,4.6-5.5,4.6c-3.4,0-5.4-1.7-5.5-4.2h3.1c0.1,1.2,1,2.1,2.5,2.1c1.6,0,2.4-0.8,2.4-1.9c0-1-0.5-1.5-2-1.7l-2.1-0.4
			c-2.1-0.4-3.6-1.7-3.6-3.9c0-2.4,1.9-4.2,5.2-4.2c3.5,0,5,1.8,5.1,3.9L118.4,25.6L118.4,25.6z"/>
	</g>
	<polygon points="35.5,63.4 1,63.4 1,112.7 14.8,112.7 14.8,77.2 49.4,77.2 49.4,42.6 14.8,42.6 14.8,35.7 49.4,35.7 49.4,1.1 
		1,1.1 1,15.1 35.5,15.1 35.5,21.9 1,21.9 1,56.4 35.5,56.4 	"/>
</g>
</svg>
